<svg xmlns="http://www.w3.org/2000/svg" width="512" height="512"><path fill="#FDC142" d="M263 1.688c4.917 3.79 7.515 7.248 9 13.312v6l16 2-1-2c-.057-6.326.785-11.083 5-16 5.483-4.948 9.8-5.35 16.984-5.281 5.456.509 8.458 2.723 12.329 6.594 3.84 6.117 4.196 11.8 2.687 18.687a312 312 0 0 1-2 5l2.171.719q4.853 1.607 9.704 3.218l3.418 1.131 3.262 1.084 3.015 1C346 38 346 38 348 39c-1.159-5.022-2.352-7.466-6-11-2.373-5.222-3.097-10.627-1.312-16.113C342.91 6.97 345.602 4.088 350 1c5.516-1.839 11.909-2.11 17.426-.129C371.985 3.49 375.513 6.837 377 12c.763 6.527.86 12.426-3 18l-1.573 1.402c-1.762 1.974-1.84 2.997-1.939 5.61l-.107 2.295-.068 2.38-.104 2.417c-.082 1.965-.147 3.93-.209 5.896l2.445.664c4.539 1.706 8.36 4.1 12.43 6.711l2.528 1.613c22.411 14.48 43.2 31.87 59.597 53.012 3.886-.792 5.94-2.489 9-5 5.516-1.839 11.909-2.11 17.426-.129 4.559 2.619 8.087 5.966 9.574 11.129.754 6.445.964 12.583-3 18-3.489 3.337-6.515 5.328-11 7l1.54 3.078c4.124 8.25 4.124 8.25 5.237 10.493.86 1.71 1.743 3.409 2.64 5.1 4.229 8.104 7.304 16.42 10.146 25.079l.72 2.177c8.438 25.581 12.137 50.82 12.03 77.698l-.007 2.941c-.051 14.328-.398 28.356-3.306 42.434l-.602 2.979C490.68 347.283 478.412 379.117 459 406l-1.492 2.087C451.454 416.503 445.07 424.409 438 432a747 747 0 0 0-3.562 4.125c-6.018 6.87-12.47 12.883-19.598 18.594a275 275 0 0 0-5.461 4.5C396.694 469.925 382.673 478.32 368 486l-2.216 1.168C345.18 497.879 322.763 504.684 300 509l-2.374.492c-37.2 7.543-78.618 3.401-114.626-7.492l-2.462-.728C158.19 494.527 135.928 483.651 117 470l-2.006-1.428C96.354 455.235 79.117 440.117 65 422l-3.023-3.766C36.037 385.574 19.272 346.192 13 305l-.555-3.522c-1.624-11.37-1.802-22.63-1.758-34.103l.006-2.95c.044-14.021.455-27.655 3.307-41.425l.488-2.573C22.027 180.894 39.029 142.864 65 112l2.895-3.508C77.892 96.496 88.65 85.59 101 76l3.047-2.422C125.966 56.262 150.457 42.824 177 34l2.517-.842C197.324 27.298 215.364 23.835 234 22l.008-2.125C234.304 12.609 235.714 8.098 241 3c5.88-4.48 15.462-4.786 22-1.312"/><path fill="#1E2E78" d="m236 23 1.375 2.813c1.345 3.215 1.345 3.215 3.702 4.747 3.062 3.885 2.416 7.874 2.314 12.674l-.018 3.01c-.022 3.17-.072 6.337-.123 9.506q-.03 3.225-.055 6.45-.067 7.9-.195 15.8l-3.34 1.634-4.375 2.159-2.196 1.072C223.28 87.723 216.883 94.073 212 104a190 190 0 0 0-1.596 5.196l-.802 2.727L209 114c-6.583.127-13.167.214-19.751.275q-3.358.037-6.716.102c-3.222.061-6.443.09-9.666.111l-3.021.078c-4.58.002-7.786-.002-11.395-3.016L156 109c-4.456-2.756-8.903-2.735-14-2-5.122 1.958-8.957 5.095-11.379 10.047-1.629 5.121-1.016 9.635.504 14.703 2.483 4.304 5.372 6.998 9.875 9.25 6.28.534 11.615.635 17-3l1.365-1.584c2.178-1.887 3.436-1.78 6.29-1.757l2.85.001 3.07.047 3.148.013c3.322.017 6.643.054 9.964.093q3.377.022 6.752.04c5.521.031 11.04.09 16.561.147v32c-6.442.115-12.881.214-19.324.275q-3.285.037-6.57.102c-3.153.061-6.304.09-9.458.111l-2.955.078c-4.535.002-7.658-.034-11.229-3.016L156 162c-4.442-2.76-8.914-2.635-14-2-4.859 1.7-8.163 4.744-11 9-1.795 5.384-1.497 10.344.125 15.75 2.483 4.304 5.372 6.998 9.875 9.25 5.637.515 10.455.786 15.563-1.812 2.347-2.007 2.347-2.007 3.804-3.803 2.159-1.83 3.391-1.749 6.196-1.726l2.79.001 3.002.047 3.082.013c3.25.017 6.5.054 9.75.093q3.304.022 6.608.04c5.402.031 10.803.09 16.205.147v33c-6.425.138-12.844.257-19.269.33q-3.275.044-6.55.123c-3.145.073-6.289.107-9.435.133-.97.03-1.94.062-2.94.094-4.973.002-7.932-.284-11.728-3.654l-1.534-1.636c-3.182-2.864-7.325-2.678-11.458-2.6-4.972.502-8.697 2.453-11.961 6.148-3.329 4.797-3.884 9.241-3.125 15.062 1.764 5.291 4.239 8.948 9 12 5.65 1.883 10.976 1.802 16.375-.812 2.038-1.095 3.44-1.971 4.942-3.74 2.215-1.905 3.444-1.812 6.338-1.789l2.85.001 3.07.047 3.148.013c3.322.017 6.643.054 9.964.093q3.377.022 6.752.04 8.28.052 16.561.147l.975 2.887 1.314 3.8 1.288 3.762c4.3 10.727 12.901 17.589 22.993 22.57 2.79 1.213 2.79 1.213 7.43 1.981v24l-10-3q-2.713-.793-5.43-1.57l-2.718-.778-2.727-.777-2.797-.8-2.695-.77-2.41-.688L212 290l-1.956-.567c-22.033-4.672-45.232 2.476-63.919 14.005-13.422 9.034-24.262 19.726-33.787 32.721A157 157 0 0 1 99 352l-1.375 1.486C84.794 367.329 70.115 377.176 53 385l-2.93 1.375C44.365 389 44.365 389 42 389c-13.975-26.695-24.417-54.12-29-84l-.542-3.44c-1.623-11.4-1.815-22.683-1.77-34.185l.005-2.95c.044-14.021.455-27.655 3.307-41.425l.488-2.573C22.027 180.894 39.029 142.864 65 112l2.895-3.508C77.892 96.496 88.65 85.59 101 76l3.047-2.422C125.966 56.262 150.457 42.824 177 34l2.517-.842c15.387-5.063 31.032-8.494 47.108-10.47l2.173-.27c4.948-.545 4.948-.545 7.202.582"/><path fill="#1D2E78" d="M483 174c7.849 11.773 11.089 28.901 13.938 42.625l.565 2.716c3.06 15.754 3.874 31.272 3.81 47.284l-.007 2.941c-.051 14.328-.398 28.356-3.306 42.434l-.602 2.979C490.68 347.283 478.412 379.117 459 406l-1.492 2.087C451.454 416.503 445.07 424.409 438 432a747 747 0 0 0-3.562 4.125c-6.018 6.87-12.47 12.883-19.598 18.594a275 275 0 0 0-5.461 4.5C396.694 469.925 382.673 478.32 368 486l-2.216 1.168C345.18 497.879 322.763 504.684 300 509l-2.374.492c-37.2 7.543-78.618 3.401-114.626-7.492l-2.462-.728C158.064 494.489 136.151 483.501 117 470l-3-2c1.474-4.422 4.986-5.542 8.875-7.687q2.623-1.482 5.242-2.97l2.874-1.624c5.375-3.07 10.688-6.244 16.009-9.406l3.423-2.02c5.409-3.195 10.798-6.415 16.137-9.726 2.43-1.506 4.869-2.996 7.309-4.486a479 479 0 0 0 5.111-3.205c7.704-4.691 12.427-5.913 21.18-4.29l2.903.789c19.885 4.89 40.759 4.812 61.124 4.81 3.008.003 6.015.02 9.022.04 32.179.095 55.355-9.653 81.854-27.35l1.692-1.13c10.423-6.991 20.462-14.466 30.308-22.245l1.773-1.399c34.05-23.583 34.05-23.583 55.535-55.714.168-6.823-.9-11.156-5.371-16.387-3.776-3.654-8.169-4.793-13.312-5.375-8.15.829-14.607 5.428-21 10.25a3548 3548 0 0 1-4.692 3.453l-2.454 1.81c-4.392 3.217-8.839 6.356-13.292 9.487l-2.525 1.792-2.397 1.685-2.097 1.479c-2.627 1.671-5.446 3.026-8.231 4.419v-57l13-4c11.11-5.62 18.407-13.356 23-25a792 792 0 0 0 2-7q8.993-.222 17.987-.33 3.057-.044 6.113-.123a554 554 0 0 1 8.81-.133l2.74-.094c4.844-.002 7.624.435 11.356 3.654q1.499 1.512 2.994 3.026c4.267 2.134 9.814 1.65 14.297.316 4.74-2.147 7.216-4.64 9.703-9.316 1.594-4.782 1.963-9.436.164-14.227-2.463-4.413-5.248-7.17-9.918-9.148-5.675-1.58-10.452-1.571-15.683 1.188-2.467 1.992-2.467 1.992-3.955 3.802-2.078 1.79-3.18 1.75-5.896 1.726l-2.608-.001-2.803-.047-2.88-.013c-3.036-.017-6.072-.054-9.108-.093q-3.087-.022-6.174-.04c-5.047-.031-10.092-.09-15.139-.147v-33c5.997-.138 11.99-.257 17.987-.33q3.057-.044 6.113-.123a554 554 0 0 1 8.81-.133l2.74-.094c4.844-.002 7.624.435 11.356 3.654q1.499 1.512 2.994 3.026c4.264 2.132 9.755 1.609 14.262.387 5.442-2.353 8.484-5.939 10.738-11.387.622-2.732.85-5.186 1-8"/><path fill="#FEC6AA" d="m227 293 2.054.68c9.012 3.017 17.562 6.872 26.038 11.16 10.443 5.168 21.112 6.773 32.595 8.16 10.515 1.329 20.951 2.73 31.313 5l2.035.437c22.274 4.85 22.274 4.85 28.965 14.563 1.183 2.366 1.134 3.868 1.125 6.5l.008 2.406C351 344 351 344 350 346q6.89-4.71 13.777-9.426 4.703-3.22 9.414-6.43a897 897 0 0 0 20.997-14.769q4.404-3.19 8.812-6.375l1.961-1.418a782 782 0 0 1 5.289-3.77l2.953-2.105c5.15-3.143 9.791-4.318 15.797-3.707 7.21 2.184 11.256 5.385 15.105 11.86 1.078 2.577 1.23 4.599 1.27 7.39l.086 2.703c-1.251 8.272-6.366 13.51-12.211 19.11l-2.055 2.025C426.613 345.57 421.86 349.822 417 354l-3.281 2.852c-83.825 72.395-83.825 72.395-134.223 72.28l-2.917.004q-3.038 0-6.073-.006-4.555-.005-9.11.007c-15.358.006-30.766-.07-45.959-2.575l-2.416-.369c-3.9-.612-7.715-1.348-11.548-2.29A199 199 0 0 0 197 423l-2.083-.397c-7.944-.78-14.155 4.07-20.604 8.084q-1.94 1.177-3.884 2.35a1319 1319 0 0 0-7.787 4.74c-4.092 2.506-8.226 4.937-12.367 7.36C138.088 452.267 126.04 459.628 114 467c-5.154-2.757-9.44-5.824-13.812-9.687l-1.84-1.603Q95.669 453.362 93 451l-2.812-2.469C80.94 440.324 72.638 431.726 65 422l-1.518-1.908C55.847 410.472 49.03 400.704 43 390c2.695-3.356 6.314-4.513 10.188-6.062 24.132-10.137 44.161-28.026 59.437-49.063C139.359 298.094 182.246 277.595 227 293"/><path fill="#FEC242" d="M369.5 77.625c10.912.335 21.035 7.438 28.313 15.125 5.16 6.27 7.948 13.295 9.187 21.25q8.407-.104 16.815-.262 2.859-.051 5.718-.084c2.743-.034 5.486-.086 8.229-.142l2.573-.02c5.92-.146 9.067-1.506 13.79-5.117 4.846-3.554 11.159-3.005 16.875-2.375 5.013 1.8 8.981 4.984 11.379 9.844 1.675 5.817 1.363 11.889-.504 17.594-3.107 4.245-6.31 6.87-11.125 9-6.17.925-12.045-.086-17.375-3.438L451 137v-2h-44l.246 9.633c.055 3.088.097 6.175.139 9.263q.052 3.213.143 6.425c.085 3.084.125 6.165.156 9.25l.11 2.888c.003 6.531.003 6.531-2.329 9.486-4.175 3.646-7.467 5.506-13.16 5.485-4.652-.868-8.983-4.108-12.305-7.43l-.018 2.162a4576 4576 0 0 1-.218 20.214c-.044 3.464-.084 6.927-.11 10.391-.032 3.987-.086 7.973-.142 11.96l-.02 3.75c-.183 10.78-.183 10.78-3.492 15.523-4.058 3.677-7.622 4.13-12.969 4.193l-3.721.049q-2.012.017-4.025.031l-2.05.017q-5.365.039-10.73.06-4.44.02-8.879.082c-3.576.05-7.152.074-10.728.081a323 323 0 0 0-4.085.046c-1.905.032-3.81.029-5.715.024l-3.283.025C307 248 307 248 304.697 245.643c-3.254-5.068-4.318-9.645-3.697-15.643 1.463-4.018 3.105-7.202 6.313-10.062 2.094-1.95 2.094-1.95 1.5-5.438A457 457 0 0 0 307 207l-32 1-4 9c-3.462 3.462-3.462 3.462-7.375 3.563-2.611-.09-4.143-.24-6.324-1.7-2.118-2.311-3.231-4.343-3.648-7.445.492-4.84 2.188-8.972 3.968-13.477l1.146-2.97c1.214-3.14 2.442-6.274 3.67-9.409l2.374-6.126q2.374-6.13 4.778-12.248c1.651-4.212 3.26-8.438 4.841-12.677l1.199-3.17q1.125-2.981 2.218-5.973c1.99-5.226 3.735-8.858 8.153-12.368 2.856-.623 5.04-.25 8 0l-.105-2.16c-.273-9.65 2.071-15.095 8.484-22.238 2.932-2.898 5.166-2.747 9.172-2.807l3.519-.06 3.813-.051 3.892-.063q5.125-.082 10.249-.153 5.228-.077 10.456-.161 10.26-.162 20.52-.307l-1.937-2.312c-2.842-3.703-3.457-6.772-3.422-11.422.945-5.959 4.616-12.972 10.859-13.641"/><path fill="#FDEF56" d="M407 135h44v2l1.75.875c2.25 1.125 2.25 1.125 4 2.188 2.44 1.179 2.44 1.179 6.125 1 2.57.307 3.772.6 5.66 2.402 1.678 2.435 3.07 4.924 4.465 7.535l1.116 2.042C484.252 171.585 484.252 171.585 483 182c-2.18 5.675-5.659 9.097-11 12-4.345 1.448-8.459 1.523-13 1-3.04-1.603-5.154-3.022-7.392-5.61-2.064-1.784-3.193-1.783-5.896-1.822l-2.608-.06-2.803-.02-2.88-.054c-3.036-.054-6.072-.088-9.108-.121a4709 4709 0 0 1-6.174-.104c-5.047-.088-10.092-.148-15.139-.209v33c5.998-.005 11.99-.028 17.987-.098q3.057-.027 6.113-.022a569 569 0 0 0 8.81-.075l2.74.027c6.722-.153 9.7-2.148 14.35-6.832 4.262-2.131 9.835-1.677 14.297-.281 5.746 2.679 9.16 6.464 11.703 12.281 1.037 6.418-.298 11.7-4 17-4.54 4.424-8.67 6.094-14.937 6.375-4.756-.092-7.387-1.237-11.063-4.375l-1.392-1.61c-2.064-1.784-3.193-1.783-5.896-1.822l-2.608-.06-2.803-.02-2.88-.054c-3.036-.054-6.072-.088-9.108-.121a4709 4709 0 0 1-6.174-.104c-5.046-.085-10.093-.152-15.139-.209l-.432 3.329c-1.487 9.61-8.31 18.466-15.568 24.671-6.948 4.63-13.74 7.082-22 8l.114 2.121c.343 6.647.6 13.29.767 19.944.088 3.42.207 6.833.401 10.25 1.222 22.038 1.222 22.038-2.973 28.148C363.02 340.702 356.33 346 350 346l.07-2.266.055-2.984.07-2.953c.004-2.734.004-2.734-1.193-4.634-1.24-2.676-1.243-4.63-1.23-7.574l.001-3.275.032-3.517.008-3.615c.011-3.81.037-7.621.062-11.432q.016-3.875.027-7.75.034-9.5.098-19l-3.76.111c-4.618.127-9.236.207-13.855.274q-2.994.052-5.988.143c-2.875.085-5.748.125-8.624.156l-2.69.11c-6.094.003-6.094.003-8.987-2.329-4.319-4.946-5.447-8.39-5.381-14.926.414-3.688 1.899-5.755 4.285-8.539l1.762-2.133c2.91-2.428 4.53-2.366 8.288-2.365l3.702-.03 3.99.024q2.055-.011 4.11-.028c3.605-.027 7.209-.033 10.814-.031 5.762.002 11.523-.012 17.285-.056 2.006-.01 4.013 0 6.019.009l3.72-.021 3.262.003c3.682-.45 5.952-1.32 9.048-3.372 2.67-4.055 3.38-7.292 3.432-12.097l.06-3.578.02-3.817.054-3.943c.047-3.442.077-6.885.104-10.327.03-3.52.076-7.039.121-10.558A4732 4732 0 0 0 379 179l2.259 1.503 2.98 1.946 2.946 1.94c4.216 2.412 6.046 2.627 10.815 1.611 3.163-1.554 5.67-3.346 8-6 1.13-3.485 1.074-6.79 1-10.43l.033-3c.026-3.15-.003-6.296-.033-9.445q.012-3.21.035-6.422c.037-5.236-.001-10.465-.035-15.703"/><path fill="#FEA97B" d="m147 302 1 2a98 98 0 0 1-2.312 6.125c-7.08 17.243-7.18 37.376-.688 54.875l1.098 3.148c5.396 14.233 15.13 25.363 25.902 35.852l1.434 1.535C179.585 412.012 186.925 418.11 195 422l-3.707.543c-6.715 1.503-12.192 5.194-17.98 8.77a1965 1965 0 0 1-3.6 2.179q-3.637 2.2-7.267 4.416c-4.865 2.962-9.782 5.836-14.696 8.717-11.323 6.671-22.542 13.513-33.75 20.375-5.154-2.757-9.44-5.824-13.812-9.687l-1.84-1.603Q95.669 453.362 93 451l-2.812-2.469C80.94 440.324 72.638 431.726 65 422l-1.518-1.908C55.847 410.472 49.03 400.704 43 390c2.695-3.356 6.314-4.513 10.188-6.062 24.132-10.137 44.161-28.026 59.437-49.063 9.733-13.39 20.33-24.056 34.375-32.875"/><path fill="#FC8D3E" d="M251.984 105.66h3.578l3.833.047 3.946.013c3.451.011 6.902.04 10.352.074 3.526.03 7.052.044 10.578.06q10.365.05 20.729.146l-1.25 1.445-1.637 1.902-1.625 1.883c-3.889 4.625-5.056 8.643-5.676 14.582l-.248 2.1A502 502 0 0 0 294 133l-3.688.125c-3.274.111-4.233.799-6.63 3.118-3.922 4.882-5.708 10.866-7.842 16.679q-.714 1.902-1.43 3.803c-1.25 3.327-2.486 6.658-3.719 9.99-1.246 3.364-2.505 6.723-3.763 10.082-1.42 3.792-2.84 7.585-4.249 11.38-2.218 5.97-4.483 11.906-6.932 17.785-1.057 2.884-1.31 5.015-.747 8.038 1.273 3.03 1.273 3.03 4 5 3.08.59 5.932.678 9 0 3.874-3.515 3.874-3.515 7-12h32c3 7 3 7 3 9.562-1.38 3.364-3.649 5.685-6 8.438-2.19 4.067-2.459 7.414-2 12 1.129 3.11 2.505 6.051 4 9l1 2q-11.775.141-23.55.207-5.467.03-10.935.095-5.281.063-10.563.078c-1.99.01-3.981.042-5.972.073-11.341.003-11.341.003-15.98-4.453-2.773-3.106-3.377-5.042-3.388-9.186l-.03-3.178.014-3.47-.02-3.667q-.022-4.974-.012-9.948c.003-2.77-.003-5.542-.009-8.312q-.02-9.81-.001-19.617c.011-6.74-.003-13.478-.03-20.217q-.032-8.688-.022-17.374c.003-3.457 0-6.913-.017-10.37-.018-3.856-.004-7.712.013-11.569l-.029-3.457c.056-6.001.228-10.047 4.531-14.635 3.683-2.873 6.365-3.37 10.984-3.34"/><path fill="#FEF055" d="M367.426.871C371.985 3.49 375.513 6.837 377 12c.763 6.527.86 12.426-3 18l-1.573 1.402c-1.762 1.974-1.84 2.997-1.939 5.61l-.107 2.295-.068 2.38-.104 2.417c-.082 1.965-.147 3.93-.209 5.896l2.445.664c4.539 1.706 8.36 4.1 12.43 6.711l2.528 1.613C409.236 73.094 431.88 90.551 447 112v2h-40l-5-13c-5.997-10.298-14.402-18.07-26.086-21.637-3.412-.647-6.528-1.203-9.914-.363-4.123 3.77-5.854 8.246-6.312 13.75.05 5.482 2.45 9.387 6.312 13.25q-11.605.141-23.21.207c-3.593.021-7.185.05-10.778.095q-5.204.063-10.407.078c-1.963.01-3.927.042-5.89.073l-3.64.001-3.196.027c-3.626-.606-5.254-1.957-7.879-4.481-2.862-4.441-3.787-7.756-3-13 2.152-4.376 4.54-8.54 8-12 1.835-.24 1.835-.24 4.083-.227h2.547l2.753.032 2.816.008c2.976.011 5.95.037 8.926.062q3.022.016 6.043.027 7.416.035 14.832.098-.03-9.263-.153-18.524-.034-3.15-.043-6.3c-.009-3.022-.05-6.041-.097-9.063l.012-2.838c-.103-4.6-.15-6.593-3.181-10.231L342 28c-2.419-5.183-3.09-10.647-1.312-16.113C342.91 6.97 345.602 4.088 350 1c5.516-1.839 11.909-2.11 17.426-.129"/><path fill="#FEFAB2" d="M369.5 77.625c10.912.335 21.035 7.438 28.313 15.125 5.16 6.27 7.948 13.295 9.187 21.25q8.407-.104 16.815-.262 2.859-.051 5.718-.084c2.743-.034 5.486-.086 8.229-.142l2.573-.02c5.92-.146 9.067-1.506 13.79-5.117 4.846-3.554 11.159-3.005 16.875-2.375 5.013 1.8 8.981 4.984 11.379 9.844 1.675 5.817 1.363 11.889-.504 17.594-3.107 4.245-6.31 6.87-11.125 9-6.17.925-12.045-.086-17.375-3.438L451 137v-2h-44l.246 9.633c.055 3.088.097 6.175.139 9.263q.052 3.213.143 6.425c.085 3.084.125 6.165.156 9.25l.11 2.888c.003 6.531.003 6.531-2.329 9.486-4.174 3.646-7.47 5.512-13.164 5.48-5.21-.963-9.63-4.754-13.301-8.425-.252-2.63-.252-2.63-.255-6.007l-.021-3.824c0-.676 0-1.353.002-2.05q-.002-3.178-.03-6.356-.068-9.039-.077-18.076c-.005-3.686-.03-7.37-.065-11.056q-.015-2.102-.007-4.205c.007-1.967-.012-3.935-.033-5.902l-.008-3.386c-.627-3.887-2.076-6.075-4.506-9.138-2.393-1.36-2.393-1.36-5-2.062-4.314-1.525-6.602-2.872-9-6.938-1.584-4.753-1.923-8.836.047-13.453 4.608-8.403 4.608-8.403 9.453-8.922"/><path fill="#E8F6F9" d="m290.438 132.375 2.183-.04c3.55.992 5.96 2.966 8.379 5.665 1.687 3.039 2.83 6.217 3.988 9.488l1.046 2.812c1.11 2.998 2.195 6.005 3.279 9.012q1.131 3.085 2.267 6.167a3651 3651 0 0 1 4.422 12.083 630 630 0 0 0 5.107 13.47l1.292 3.314a637 637 0 0 0 2.262 5.7c2.02 5.237 2.87 9.33 2.337 14.954-1.996 2.994-3.383 4.638-6.973 5.441-3.255.19-5.566-.154-8.34-1.879C310 216 310 216 307 207l-32 1-4 9c-3.462 3.462-3.462 3.462-7.375 3.563-2.611-.09-4.143-.24-6.324-1.7-2.118-2.311-3.231-4.343-3.648-7.445.492-4.84 2.188-8.972 3.968-13.477l1.146-2.97c1.214-3.14 2.442-6.274 3.67-9.409l2.374-6.126q2.374-6.13 4.778-12.248c1.651-4.212 3.26-8.438 4.841-12.677l1.199-3.17q1.125-2.981 2.218-5.973c4.997-13.128 4.997-13.128 12.59-12.993"/><path fill="#4F70B6" d="m61.003 219.807 2.499-.049c3.773-.044 7.545-.085 11.319-.108q2.983-.025 5.967-.082a615 615 0 0 1 8.607-.091l2.686-.07c4.544.016 6.313.1 9.957 3.063L104 225l1 1c.712 7.12.712 7.12-2.375 10.937-3.906 3.07-5.8 3.184-10.727 3.16l-3.671-.01c-1.271-.007-2.542-.016-3.852-.025l-3.875-.013q-4.75-.018-9.5-.049l.027 2.472q.12 11.543.18 23.085c.021 3.956.05 7.912.095 11.868q.063 5.728.078 11.457.01 2.182.043 4.366c.029 2.043.033 4.083.031 6.126l.027 3.52C70.898 306.658 69.635 308.3 67 311c-2.484 1.242-4.131 1.12-6.909 1.114h-3.093l-3.35-.016-3.421-.005c-3.618-.005-7.235-.018-10.852-.03q-3.672-.008-7.344-.014Q23.016 312.032 14 312q-.507-3.312-1-6.625l-.563-3.727C12 298 12 298 12 292h39l-.14-14.262q-.032-4.478-.055-8.955c-.024-4.736-.052-9.472-.107-14.208q-.063-5.728-.078-11.457a446 446 0 0 0-.043-4.366c-.029-2.043-.033-4.083-.031-6.126l-.027-3.52c.583-3.765 1.846-5.406 4.481-8.106 2.245-1.122 3.512-1.149 6.003-1.193"/><path fill="#FEAA7B" d="M372 331c2.02 4.039.156 8.841-1 13-6.105 15.6-15.196 23.596-30.214 30.227L339 375l-2.504 1.094c-22.201 8.425-49.436 3.627-71.84-1.474-5.014-1.125-10.03-2.021-15.11-2.811l-3.96-.628c-2.598-.41-5.196-.795-7.801-1.167-10.04-1.588-10.04-1.588-13.097-4.424-2.112-3.24-2.441-4.894-2.157-8.652.883-3.651 2.349-4.941 5.469-6.938 7.07-.884 14.071.527 20.977 1.934l3.06.598c3.198.626 6.393 1.265 9.588 1.906q4.803.951 9.609 1.895 2.976.585 5.95 1.182c10.182 2.019 19.927 2.667 30.316 2.673l3.879.037c12.05.018 24.634-2.033 34.308-9.913 2.333-2.088 2.333-2.088 3.313-4.312 1.64-.954 3.284-1.903 4.946-2.818 3.64-2.095 7.048-4.532 10.491-6.932l2.217-1.535A2783 2783 0 0 0 372 331"/><path fill="#1E2F78" d="M369 49c28.98 13.91 59.25 36.402 78 63v2h-40l-5-13c-5.88-10.097-13.185-16.385-24-21l-9-2z"/><path fill="#213179" d="M407 135h44v2l1.75.875c2.25 1.125 2.25 1.125 4 2.188 2.44 1.179 2.44 1.179 6.125 1 2.715.301 3.814.626 5.766 2.578 1.63 2.385 3.01 4.804 4.359 7.359l1.738 3.195c3.114 5.94 3.114 5.94 4.262 8.805l-1 2-1.434-1.094c-5.233-3.672-9.204-4.959-15.566-3.906-3.527.972-6.31 2.094-8.587 5.085-3.78 3-7.526 2.41-12.21 2.306l-2.875-.018a963 963 0 0 1-9.078-.123q-3.08-.03-6.16-.055c-5.03-.04-10.06-.119-15.09-.195z"/><path fill="#FEF055" d="m308.632 76.76 3.378.013h3.822l4.145.032 4.228.008c3.713.008 7.425.028 11.137.05 3.787.02 7.574.03 11.361.04 7.432.02 14.865.055 22.297.097l-2.415 1.884c-3.982 3.26-6.017 7.105-6.972 12.167-.307 5.451 1.433 8.604 4.387 12.949l2 2q-11.605.141-23.21.207c-3.593.021-7.185.05-10.778.095q-5.204.063-10.407.078c-1.963.01-3.927.042-5.89.073l-3.64.001-3.196.027c-3.626-.606-5.254-1.957-7.879-4.481-2.862-4.441-3.787-7.756-3-13 5.802-11.8 5.802-11.8 10.632-12.24"/><path fill="#243277" d="M271 22c15.286-.272 15.286-.272 19.395 2.777 1.442 2.02 2.54 3.988 3.605 6.223l2 2c.24 1.949.24 1.949.227 4.358v2.73l-.032 2.951-.008 3.018c-.011 3.19-.037 6.379-.062 9.568q-.016 3.239-.027 6.477c-.02 5.3-.06 10.598-.098 15.898h-33c-.138-6.282-.257-12.56-.33-18.842a623 623 0 0 0-.123-6.404c-.073-3.076-.107-6.15-.133-9.227-.03-.948-.062-1.896-.094-2.873-.002-4.883.317-7.812 3.592-11.562l1.6-1.54c1.646-1.716 2.523-3.392 3.488-5.552"/><path fill="#E8F6F7" d="M351 133c3.306 3.276 4.803 4.908 5.635 9.528l.012 3.943.027 2.19a435 435 0 0 1-.01 7.12q.005 2.488.015 4.976.009 5.205-.027 10.41c-.029 4.438-.012 8.876.018 13.315.018 3.423.012 6.846 0 10.269q-.006 2.454.011 4.908c.013 2.291-.006 4.58-.034 6.87l-.012 3.943c-.832 4.624-2.324 6.25-5.635 9.528-3.097.971-5.845.702-9 0-3.032-2.198-3.817-3.45-5-7a180 180 0 0 1-.177-7.054l-.02-2.164q-.028-3.544-.041-7.087l-.013-2.446q-.03-6.41-.044-12.817c-.011-4.41-.046-8.821-.085-13.232-.026-3.393-.035-6.787-.038-10.181a580 580 0 0 0-.035-4.878 497 497 0 0 1-.017-6.828l-.018-3.923c.57-3.955 1.698-5.587 4.488-8.39 3.173-1.586 6.621-1.968 10-1"/><path fill="#4F70B6" d="M31 167q13.17-.176 26.34-.26c4.076-.025 8.153-.06 12.23-.117 3.936-.055 7.871-.084 11.807-.097q2.25-.015 4.501-.055c2.105-.036 4.207-.04 6.312-.039l3.627-.033c4.087.772 5.542 2.478 8.183 5.601l1 1c.557 5.685-.414 8.57-4 13-2.937 1.469-5.893 1.13-9.112 1.114h-2.217c-2.424 0-4.848-.009-7.273-.016l-5.036-.005q-6.633-.006-13.266-.024-6.766-.014-13.534-.02Q37.282 187.033 24 187c1.926-6.856 4.247-13.433 7-20"/><path fill="#1F2F78" d="M316 277h32v53l-8-5c-3.703-1.549-3.703-1.549-7.437-2.687l-3.684-1.2c-4.245-1.218-8.568-2.155-12.879-3.113z"/><path fill="#1E2F78" d="M320.883 29.934c9.08 2.04 18.77 4.892 27.117 9.066v38h-32c-.069-6.212-.129-12.422-.165-18.634a1236 1236 0 0 0-.061-6.34c-.037-3.037-.054-6.072-.067-9.108-.015-.947-.03-1.894-.047-2.87V37.38l-.02-2.349c.545-3.073 2.03-4.984 5.243-5.097"/><path fill="#FABE43" d="M348 277h21c.387 7.224.697 14.442.88 21.674.09 3.361.217 6.71.402 10.068 1.167 21.723 1.167 21.723-2.973 27.7C363.02 340.66 356.317 346 350 346l.07-2.266.055-2.984.07-2.953c.004-2.734.004-2.734-1.193-4.634-1.24-2.676-1.243-4.63-1.23-7.574l.001-3.275.032-3.517.008-3.615c.011-3.81.037-7.621.062-11.432q.016-3.875.027-7.75.035-9.5.098-19"/><path fill="#233178" d="M263 277h33v38l-10.875-1.312c-1.11-.13-2.22-.26-3.363-.392l-2.754-.347-2.761-.333c-4.497-.853-8.863-2.3-13.247-3.616z"/><path fill="#3E569F" d="M257 453c2.81 1.794 4.51 3.019 6 6a92 92 0 0 1 .114 5.092v3.215l-.016 3.482-.005 3.556c-.005 3.76-.018 7.52-.03 11.28q-.008 3.817-.014 7.633-.017 9.371-.049 18.742h-20q-.147-11.183-.22-22.37-.03-3.804-.082-7.609c-.048-3.646-.071-7.292-.089-10.939l-.062-3.435c-.002-7.881-.002-7.881 2.352-11.84 3.731-3.21 7.309-3.496 12.101-2.807"/><path fill="#FDF056" d="M314.203.719c5.097 2.748 7.973 6.24 10.11 11.531 1.012 5.524.695 10.285-1.438 15.5-3.75 4.5-8.419 7.919-14.363 8.488-6.068.16-9.814.012-14.512-4.238-3.858-3.933-6.955-7.635-7.031-13.324.42-7.023 2.285-11.198 7.594-15.988 5.465-3.784 13.379-4.012 19.64-1.97"/><path fill="#FEFAB2" d="M473.426 106.871c4.559 2.619 8.087 5.966 9.574 11.129.754 6.445.964 12.583-3 18-4.02 4.02-7.353 6.153-13 7-6.108-.476-11.376-1.816-16-6-3.79-5.01-4.69-10.112-4.457-16.312.903-5.314 3.664-9.053 7.582-12.626 5.615-3.182 13.282-3.352 19.3-1.19"/><path fill="#3E569F" d="M307.844 452.566c3.186.641 4.96 2.1 7.156 4.434 1.187 2.374 1.12 3.802 1.114 6.45v2.79l-.016 3.018-.005 3.085c-.005 3.26-.018 6.521-.03 9.782q-.008 3.31-.014 6.621-.017 8.127-.049 16.254c-3.697 1.252-7.294 2.368-11.125 3.125l-2.508.508C300 509 300 509 296 509a2319 2319 0 0 1-.275-21.515q-.038-3.66-.102-7.318c-.06-3.508-.09-7.014-.111-10.522l-.078-3.303c-.003-7.582-.003-7.582 2.954-11.53 3.457-2.398 5.381-2.47 9.456-2.246"/><path fill="#FBEF56" d="M477.89 163.309c3.745 3.002 4.825 5.534 5.446 10.234.34 5.877-.37 9.996-3.836 14.8-3.494 3.86-7.563 6.349-12.77 6.895-5.821.17-9.192-.227-13.73-4.238-5.288-5.503-6.366-9.788-6.277-17.277.533-5.238 3.531-8.18 7.277-11.536 7.801-5.688 16.254-3.99 23.89 1.122"/><path fill="#FBEE56" d="M471.297 212.719c5.746 2.679 9.16 6.464 11.703 12.281 1.037 6.418-.298 11.7-4 17-4.54 4.424-8.67 6.094-14.937 6.375-5.547-.132-8.638-1.851-12.5-5.871-4.498-5.124-4.918-9.195-4.84-15.781.54-5.298 3.562-8.213 7.402-11.536 5.245-3.99 10.827-4.454 17.172-2.468"/><path fill="#4E6FB5" d="M63 114a60.5 60.5 0 0 1 7.676-.398l2.31-.01a537 537 0 0 1 4.844.017c2.463.016 4.924 0 7.387-.02q2.355.004 4.709.013l2.223-.019c4.456.06 7.297.69 10.851 3.417 2.507 3.631 2.187 6.653 1.617 10.875-.94 3.238-2.781 4.465-5.617 6.125-2.396 1.198-3.868 1.12-6.542 1.114h-2.85l-3.085-.016-3.152-.005c-3.332-.005-6.664-.018-9.996-.03q-3.382-.008-6.766-.014Q58.305 135.032 50 135c.677-2.933 1.428-4.912 3.215-7.348l1.33-1.834 1.392-1.88 2.715-3.723L61 117z"/><path fill="#F7BE44" d="m348 33 5 2c2.69.313 2.69.313 5.438.25l2.746.016c3.169-.3 5.84-1.162 8.816-2.266.205 14.681-.419 29.332-1 44-17.664 1.202-35.306 1.104-53 1v-1h32z"/><path fill="#F78A3F" d="M162 114h47l-1 21h-46l2-5c.313-2.725.313-2.725.25-5.5l.016-2.781c-.184-3.19-.184-3.19-2.266-7.719"/><path fill="#FD8D3E" d="M163 220h45l1 20h-47l2-6c.272-2.08.272-2.08.188-4l-.02-1.875c-.216-2.728-.718-5.426-1.168-8.125M162 167h46v20h-45l1-4q.17-2.434.188-4.875l.042-2.492c-.183-3.265-.183-3.265-2.23-8.633"/><path fill="#FBDFD2" d="M345.18 326.977c3.341 2.71 5.493 5.929 6.156 10.171.096 5.484-.502 8.644-4.336 12.852-4.675 4.3-8.713 6.4-15.125 6.625-6.46-.354-10.378-1.887-14.812-6.75-1.6-4.327-1.72-8.321-1.063-12.875 2.309-4.617 5.656-8.873 10.727-10.582 5.762-1.06 13.007-1.881 18.453.559"/><path fill="#F8EC58" d="m450 114-.984 1.664c-1.192 2.741-1.283 4.73-1.266 7.711l-.016 2.773c.213 3.449.213 3.449 2.266 8.852h-43v-21q8.463-.25 16.925-.482 2.88-.08 5.759-.166 4.136-.122 8.273-.23l2.604-.083 2.427-.06 2.133-.061C447 113 447 113 450 114"/><path fill="#FC8D3E" d="m243 34 4 1c1.81.092 3.625.13 5.438.125l2.808.008c3.152-.084 3.152-.084 7.754-1.133v43l-17 1-4 1z"/><path fill="#FFC242" d="M408 220h41l-1 4a102 102 0 0 0-.125 5.438l-.008 2.808c.084 3.152.084 3.152 1.133 7.754h-42z"/><path fill="#FEC242" d="M408 167h41l-1 4a102 102 0 0 0-.125 5.438l-.008 2.808c.084 3.152.084 3.152 1.133 7.754h-41z"/><path fill="#3E56A0" d="M12 292h39l1 13c1.79 4.105 1.79 4.105 5 7H14c-2-14-2-14-2-20"/><path fill="#3E569F" d="M360.844 452.566c3.186.641 4.96 2.1 7.156 4.434 1.357 2.714 1.112 4.848 1.098 7.883l-.01 3.535-.026 3.707-.013 3.73A3195 3195 0 0 1 369 485q-3.871 1.976-7.75 3.938l-2.21 1.13-2.15 1.084-1.967 1c-1.956.863-3.838 1.392-5.923 1.848q-.185-7.552-.275-15.106-.038-2.568-.102-5.136c-.061-2.465-.09-4.929-.111-7.395l-.078-2.308c-.003-4.057.385-5.83 2.954-9.038 3.44-2.657 5.268-2.68 9.456-2.45"/><path fill="#FD8D3E" d="m243 276 20 1v32c-10-4-10-4-20-9z"/><path fill="#ADE9F7" d="M282 189h18c2.527 5.986 4.944 11.833 7 18h-32c3-10 3-10 7-18"/><path fill="#F9944B" d="M290 166h2a4384 4384 0 0 1 4 10.375l1.156 2.984 1.094 2.852 1.016 2.634C300 187 300 187 300 189h-18c2.228-7.858 4.99-15.409 8-23"/></svg>