<svg xmlns="http://www.w3.org/2000/svg" width="128" height="128"><path fill="#6D976B" d="M92 36c1.824.043 1.824.043 4 1 1.957 2.8 1.957 2.8 3.813 6.313l1.894 3.488C103 50 103 50 102 54H92l.063 4.438c.02 1.52.009 3.043-.063 4.562-1 1-1 1-3.504 1.098l-3.058-.035-3.067-.028L80 64l-.25 3.125C78.897 71.53 77.658 73.485 75 77l1.313 1.574L78 80.688l1.688 2.074C81.228 85.388 81.252 87.006 81 90l-3.437 1.563C75.585 92.59 75.585 92.59 74 94a202 202 0 0 0-1 7c-2.977 2.7-5.039 3.84-9 4.5-3.961-.66-6.023-1.8-9-4.5l-.437-3.5c-.165-3.465-.165-3.465-2.165-4.84-1.75-.98-3.572-1.83-5.398-2.66.406-5.686 2.352-7.896 6-12l1-3h-2c-4-6.5-4-6.5-4-11l-2.371.035-3.066.028-3.06.035C37 64 37 64 36 63c-.142-3.003-.042-5.992 0-9H26V37h17c1.52 3.04 1.282 6.225 1.426 9.59.377 2.555.377 2.555 2.492 4.234 1.975 1.365 1.975 1.365 4.082 1.051 2.293-1.003 4.026-2.347 6-3.875 5.15-1.717 9.422-1.643 14.375.375C74 50 74 50 76 52c1.94-.276 1.94-.276 4-1l2.125-.25c2.086-.584 2.086-.584 2.813-2.812.35-.97.7-1.94 1.062-2.938 4.08-7.08 4.08-7.08 6-9M37 54c-.167 3.417-.167 3.417 0 7 1.787 2.214 1.787 2.214 4.164 2.195l2.461-.07 2.477-.055L48 63l2-8c-4.932-3.946-7.01-2.775-13-1m42.438-.125L78 56l2 7c1.458.054 2.916.093 4.375.125l2.46.07c2.378.019 2.378.019 4.165-2.195.167-3.583.167-3.583 0-7-6.02-2.201-6.02-2.201-11.562-.125M56 77a290 290 0 0 0-3.562 4.25l-2.004 2.39c-1.652 2.217-1.652 2.217-1.309 4.579.787 2.062.787 2.062 3.438 3.031L55 92l1-3c2.217-1.59 4.579-2.723 7-4v-6zm9 2v6l5.273 2.832C72 89 72 89 74 92l6-4a225 225 0 0 0-2.687-4.437L75.8 81.066C72.716 77.526 69.265 77.578 65 79"/><path fill="#396591" d="M67 49c5.113 1.84 8.104 4.4 11 9 .972 4.642.486 8.662-1.687 12.875C73.899 74.137 72.78 75.603 69 77c-5.018.672-8.824.556-13.437-1.625-3.93-3.642-5.685-7.045-6-12.375.187-4.265 1.627-6.746 4.437-10 4.372-3.692 7.304-4.712 13-4"/><path fill="#6B5B89" d="m52 74 4 1c-.752 3.932-2.51 6.223-4.941 9.316C49.734 86.092 49.734 86.092 50 89l4 2 1.75-1.875C58 87 58 87 60.188 86.125c2.184-1.062 2.184-1.062 2.562-4.25L63 79h1v6l2.75.75c3.354 1.29 4.927 2.57 7.25 5.25l5-3q-1.433-2.19-2.875-4.375l-1.617-2.46C73.04 78.924 73.04 78.924 71 77l3-1a292 292 0 0 1 3.5 4.188l1.969 2.355c1.726 2.77 1.85 4.256 1.531 7.457l-3.437 1.563C75.585 92.59 75.585 92.59 74 94a202 202 0 0 0-1 7c-2.977 2.7-5.039 3.84-9 4.5-3.961-.66-6.023-1.8-9-4.5l-.437-3.5c-.165-3.465-.165-3.465-2.165-4.84-1.75-.98-3.572-1.83-5.398-2.66.406-5.686 2.352-7.896 6-12l1-3z"/><path fill="#527790" d="M92 36c1.824.043 1.824.043 4 1 1.957 2.8 1.957 2.8 3.813 6.313l1.894 3.488C103 50 103 50 102 54H92v9l-3-1 1-1q.552-3.492 1-7H81l-3 1-1-2c4.75-3 4.75-3 7-3l.688-2C86.49 43.877 88.78 39.219 92 36"/><path fill="#324F84" d="M63.938 51.438C68.605 52.295 71.69 54.69 75 58c.714 3.758.838 7.493-1.05 10.89-2.342 2.846-4.245 4.91-7.973 5.348-6.412.203-6.412.203-9.54-2.238L55 70l1-2 1 1.438c3.034 2.37 6.198 2.7 10 2.562 2.54-1.068 2.54-1.068 4-3v-3c-1.013-.09-1.013-.09-2.047-.184l-2.703-.254c-.882-.08-1.763-.162-2.672-.246A44 44 0 0 1 57 64c-.812-3.187-.812-3.187-1-7 2.383-3.394 3.838-4.778 7.938-5.562"/><path fill="#73C1BF" d="M71.188 48.125c4.769 3.18 7.435 6.076 8.624 11.75L80 63h11v1H80l-.25 3.188C78.921 71.4 78.047 73.035 75 76c-3.762 2.273-5.551 3-10 3v6h-1v-6l-3.375-.437C57 78 57 78 55 77v-2l1.691.484c5.09 1.137 10.361 1.262 15.246-.609 3.888-3.534 5.242-7.22 5.563-12.375-.117-3.316-.649-5.307-2.687-7.937-3.822-3.482-6.154-4.382-11.25-4.938-5.22.55-8.115 2.637-11.438 6.625-1.777 4.344-1.896 8.402-.445 12.82.71 1.672 1.508 3.306 2.32 4.93-2.451-.98-3.768-1.651-5.25-3.875C48 68 48 68 48 64H38v-1h10l.438-3.375C49 56 49 56 50 54h2l.625-1.812c4.097-6.519 12.077-6.352 18.563-4.063"/><path fill="#444681" d="M55 52c.979 2.643 1.141 3.673 0 6.313-1.358 3.65-.938 5.933 0 9.687 1.322 3.069 1.322 3.069 4 5 5.777 1.153 9.918-.149 15-3l2 1c-5.989 6.147-5.989 6.147-11.75 6.313-4.87-.064-7.586-.917-11.25-4.313-3.035-4.451-3.985-8.73-3-14 1.497-2.657 2.847-4.847 5-7"/><path fill="#3E3C7C" d="M56 59c2 2 2 2 3 5l3.688-.125C66.218 63.862 68.8 64.4 72 66c-.352 2.548-.868 3.847-2.562 5.813C65.802 73.583 62.82 73.127 59 72c-2.5-1.562-2.5-1.562-4-4-.376-2.803-.234-5.143 0-8z"/><path fill="#9887AB" d="m68 91 1 8-6 2v-2h-3c-.8-3.287-1.097-4.71 0-8 3.29-1.097 4.713-.8 8 0"/><path fill="#4C759D" d="M63.813 51.563C68.6 52.22 71.638 54.638 75 58c.714 3.758.838 7.493-1.05 10.89-2.342 2.846-4.245 4.91-7.973 5.348-6.412.203-6.412.203-9.54-2.238L55 70l1-2 1 1.438c3.033 2.369 6.252 2.788 10 2.562 3.069-1.322 3.069-1.322 5-4 1.166-4.008 1.432-6.053-.312-9.875C70.173 55.91 70.173 55.91 68 55a95 95 0 0 0-5.125-.062l-2.758.027L58 55c2.058-2.289 2.655-2.946 5.813-3.437"/><path fill="#496B86" d="M92 36c1.953.059 1.953.059 4 1 1.484 2.285 1.484 2.285 2.75 5.063l1.297 2.785L101 47c-2.937-.812-2.937-.812-6-2l-1-3-6 1c1.074-2.915 1.778-4.778 4-7"/><path fill="#598A83" d="M73 76c7.911 7.697 7.911 7.697 8.188 11.75L81 90l-8 4c1.245-3.736 2.634-4.188 6-6q-1.433-2.19-2.875-4.375l-1.617-2.46C73.04 78.924 73.04 78.924 71 77z"/><path fill="#808AAA" d="m57 61 11 2v-2h4v4H57z"/><path fill="#A6C0A1" d="M37 40h2c.375 2.188.375 2.188 0 5-2.812 2.813-2.812 2.813-6 5h-3c1.674-3.957 4.131-6.845 7-10"/><path fill="#B2A3BE" d="M62 93h4l-1 2-2-1v2l3 1 1-1 1 4-5 1v-2h-3l1-3 1 1z"/><path fill="#425186" d="m74 70 2 1c-5.143 5.571-5.143 5.571-9 6v-2h-5v-1l3.75-.875c2.43-.597 4.377-1.188 6.625-2.312z"/><path fill="#385D8B" d="m76 62 2 2c-.375 3.125-.375 3.125-1 6l-6 2z"/><path fill="#A9BCC9" d="M94 42c2 3 2 3 1.625 6.188L95 51l-4-1 1-3h2z"/><path fill="#7C99AE" d="M92 41h2v6l-4 1c.875-5.875.875-5.875 2-7"/><path fill="#68BCBD" d="M67 49c2.75-.312 2.75-.312 6 0 2.375 2.5 2.375 2.5 4 5-3.58 0-4.297-.804-7-3z"/><path fill="#6C9995" d="m80 86 1 4-8 4c1.256-3.769 2.66-4.08 6-6z"/><path fill="#639A91" d="m52 74 4 1c-.6 3.356-1.846 5.378-4 8l-2-1 4-7z"/><path fill="#507970" d="m49 83 3 1-2 2v4h-3c.875-5.875.875-5.875 2-7"/></svg>